<svg xmlns="http://www.w3.org/2000/svg" version="1.1" xmlns:xlink="http://www.w3.org/1999/xlink" xmlns:svgjs="http://svgjs.dev/svgjs" width="1000" height="1000" viewBox="0 0 1000 1000"><rect width="1000" height="1000" fill="#000000"></rect><g transform="matrix(0.7,0,0,0.7,149.57611646692538,402.93745590028726)"><svg viewBox="0 0 396 110" data-background-color="#ffffff" preserveAspectRatio="xMidYMid meet" height="277" width="1000" xmlns="http://www.w3.org/2000/svg" xmlns:xlink="http://www.w3.org/1999/xlink"><g id="tight-bounds" transform="matrix(1,0,0,1,0.24020302986059505,0.06384657539143745)"><svg viewBox="0 0 395.52 109.87195334497515" height="109.87195334497515" width="395.52"><g><svg viewBox="0 0 395.52 109.87195334497515" height="109.87195334497515" width="395.52"><g transform="matrix(1,0,0,1,0,56.49265506721836)"><svg viewBox="0 0 395.52 53.379298277756796" height="53.379298277756796" width="395.52"><g><svg viewBox="0 0 395.52 53.379298277756796" height="53.379298277756796" width="395.52"><g><svg viewBox="0 0 395.52 53.379298277756796" height="53.379298277756796" width="395.52"><g transform="matrix(1,0,0,1,0,0)"><svg width="395.52" viewBox="3.600370407104492 -20.87938117980957 360.79278564453125 48.692535400390625" height="53.379298277756796" data-palette-color="#ff0000"><path d="M11.266 14.921l-7.666-35.8 5.95 0.853 4.9 24.019 0.317 1.661 0.756 3.958 0.247 0.035 1.536-2.962c0.199-0.45 0.392-0.853 0.578-1.21 0.187-0.364 0.351-0.687 0.493-0.97v0l11.396-21.631 5.652 0.81-17.369 32.211zM50.873 20.6c-5.439-0.616-9.484-2.577-12.135-5.884-2.651-3.306-3.646-7.88-2.985-13.723v0c0.661-5.836 2.653-10.069 5.977-12.698 3.324-2.636 7.706-3.646 13.145-3.03v0c5.472 0.62 9.533 2.586 12.183 5.899 2.651 3.306 3.647 7.877 2.986 13.713v0c-0.662 5.843-2.654 10.079-5.978 12.708-3.324 2.629-7.721 3.634-13.193 3.015zM51.403 15.919c7.664 0.868 11.974-2.911 12.928-11.337v0l0.067-0.596c0.929-8.496-2.423-13.176-10.053-14.041v0c-7.598-0.861-11.895 2.954-12.89 11.443v0l-0.067 0.596c-0.954 8.426 2.384 13.071 10.015 13.935zM83.187 23.186l2.42-29.45-11.382-0.936 0.393-4.783 28.305 2.325-0.393 4.784-11.382-0.935-2.42 29.451zM105.623 24.93l2.25-34.276 5.548 0.364-2.25 34.276zM119.361 25.696l1.501-34.317 5.095 0.223 15.639 23.035c0.344 0.516 0.796 1.253 1.354 2.211v0l0.254-0.089 0.06-2.5 0.955-21.859 5.255 0.23-1.5 34.317-5.005-0.219-15.668-23.296c-0.252-0.345-0.517-0.757-0.796-1.236-0.286-0.48-0.491-0.822-0.616-1.028v0l-0.252 0.039-0.061 2.549-0.97 22.169zM171.338 27.812c-5.54-0.059-9.73-1.574-12.572-4.545-2.842-2.964-4.231-7.436-4.167-13.415v0c0.064-5.94 1.598-10.37 4.603-13.292 3.005-2.928 7.344-4.362 13.016-4.301v0c3.073 0.033 5.798 0.522 8.175 1.467 2.377 0.945 4.238 2.352 5.585 4.22 1.353 1.868 2.016 4.135 1.988 6.802v0l-5.66-0.06c0.026-2.467-0.88-4.363-2.719-5.69-1.839-1.32-4.279-1.996-7.319-2.028v0c-3.973-0.042-6.937 0.953-8.892 2.985-1.962 2.032-2.966 5.269-3.014 9.708v0l-0.006 0.55c-0.048 4.473 0.854 7.73 2.706 9.77 1.845 2.04 4.671 3.08 8.477 3.12v0c3.506 0.037 6.178-0.694 8.014-2.194 1.836-1.494 2.77-3.727 2.801-6.7v0l0.004-0.3-11.62-0.125 0.051-4.709 17.129 0.183-0.194 18.129-4.11-0.044-0.409-3.815c-2.771 2.911-6.727 4.338-11.867 4.284zM195.295 27.25l-0.704-34.343 17.516-0.359c1.873-0.038 3.543 0.277 5.011 0.948 1.467 0.67 2.621 1.64 3.46 2.909 0.846 1.263 1.286 2.731 1.321 4.404v0c0.039 1.9-0.454 3.563-1.479 4.992-1.024 1.421-2.381 2.416-4.069 2.984v0l0.004 0.199c2.008 0.392 3.638 1.319 4.888 2.781 1.25 1.461 1.899 3.345 1.946 5.651v0c0.063 3.066-0.856 5.395-2.757 6.988-1.908 1.593-4.448 2.422-7.621 2.487v0zM200.434 7.16l10.718-0.219c1.573-0.032 2.824-0.501 3.752-1.408 0.935-0.906 1.388-2.076 1.358-3.508v0c-0.033-1.6-0.491-2.794-1.373-3.583-0.883-0.782-2.077-1.158-3.584-1.127v0l-11.068 0.227zM200.746 22.377l11.567-0.237c1.673-0.034 2.968-0.478 3.884-1.33 0.916-0.852 1.356-2.165 1.32-3.938v0c-0.035-1.733-0.546-3.039-1.531-3.919-0.985-0.88-2.414-1.301-4.287-1.263v0l-11.167 0.229zM229.896 26.342l-1.644-34.31 5.544-0.266 1.413 29.506 17.86-0.855 0.23 4.804zM274.653 24.156c-5.457 0.422-9.8-0.74-13.028-3.485-3.228-2.746-5.069-7.05-5.522-12.913v0c-0.453-5.856 0.704-10.389 3.471-13.598 2.767-3.216 6.879-5.036 12.336-5.458v0c5.49-0.425 9.85 0.739 13.078 3.491 3.228 2.746 5.069 7.047 5.522 12.903v0c0.454 5.862-0.703 10.399-3.471 13.608-2.767 3.21-6.896 5.027-12.386 5.452zM274.29 19.46c7.69-0.595 11.208-5.12 10.554-13.575v0l-0.046-0.598c-0.693-8.519-4.867-12.482-12.525-11.889v0c-7.624 0.59-11.123 5.147-10.497 13.67v0l0.047 0.599c0.654 8.455 4.81 12.386 12.467 11.793zM313.377 20.465c-5.441 0.598-9.733-0.41-12.877-3.022-3.143-2.606-5.042-6.881-5.694-12.825v0c-0.649-5.904 0.277-10.48 2.777-13.725 2.5-3.252 6.47-5.178 11.911-5.775v0c4.447-0.489 8.161 0.23 11.142 2.156 2.982 1.926 4.706 5.013 5.172 9.26v0l-5.616 0.617c-0.296-2.69-1.354-4.667-3.176-5.928-1.815-1.263-4.135-1.739-6.958-1.429v0c-3.751 0.412-6.402 1.736-7.954 3.972-1.552 2.236-2.104 5.546-1.655 9.931v0l0.06 0.546c0.485 4.413 1.737 7.542 3.757 9.386 2.013 1.844 4.896 2.561 8.647 2.149v0c2.922-0.321 5.145-1.276 6.667-2.866 1.522-1.596 2.134-3.739 1.839-6.429v0l5.417-0.595c0.47 4.281-0.534 7.657-3.012 10.129-2.485 2.473-5.967 3.955-10.447 4.448zM334.498 17.35l-4.786-34.015 5.495-0.773 2.539 18.042 14.771-20.477 6.694-0.942-11.116 15.52 16.298 18.439-6.496 0.914-12.972-14.969-6.328 7.566 1.397 9.922z" opacity="1" transform="matrix(1,0,0,1,0,0)" fill="#ffffff" class="undefined-text-0" data-fill-palette-color="primary" id="text-0"></path></svg></g></svg></g></svg></g></svg></g><g transform="matrix(1,0,0,1,133.8507355977536,0)"><svg viewBox="0 0 127.81852880449274 53.379298277756796" height="53.379298277756796" width="127.81852880449274"><g><svg xmlns="http://www.w3.org/2000/svg" xmlns:xlink="http://www.w3.org/1999/xlink" version="1.1" x="0" y="0" viewBox="0.5 28.79199981689453 99.00199890136719 41.345001220703125" enable-background="new 0 0 100 100" xml:space="preserve" height="53.379298277756796" width="127.81852880449274" class="icon-icon-0" data-fill-palette-color="accent" id="icon-0"><circle fill="#ffffff" cx="21.172" cy="49.464" r="7.0" data-fill-palette-color="accent"></circle><circle fill="#ffffff" cx="78.828" cy="49.464" r="7.0" data-fill-palette-color="accent"></circle><path fill="#ffffff" d="M99.457 48.606c-0.453-11.016-9.502-19.814-20.629-19.814-2.979 0-5.804 0.643-8.362 1.777-0.008-0.001-0.016-0.003-0.023-0.004-5.47 2.749-12.158 5.269-19.942 5.269-7.762 0-15.113-1.989-20.699-5.241-0.052 0.01-0.103 0.021-0.154 0.03-2.588-1.166-5.451-1.831-8.474-1.831-11.133 0-20.186 8.808-20.63 19.832C0.516 48.902 0.5 49.183 0.5 49.464c0 0.275 0.016 0.551 0.042 0.825 0.437 11.031 9.492 19.848 20.631 19.848 2.647 0 5.17-0.517 7.497-1.424 0.012 0.003 0.023 0.006 0.035 0.008 0.059-0.028 0.119-0.057 0.178-0.085 0.833-0.336 1.639-0.721 2.414-1.158 5.129-2.452 11.022-5.051 17.918-5.051 7.568 0 14.097 2.374 19.608 5.121 0.263 0.146 0.536 0.273 0.805 0.407 0.232 0.119 0.466 0.238 0.694 0.358 0.012-0.002 0.023-0.005 0.035-0.007 2.588 1.166 5.45 1.83 8.473 1.83 11.134 0 20.186-8.809 20.63-19.834 0.026-0.278 0.042-0.558 0.042-0.839C99.5 49.177 99.483 48.891 99.457 48.606zM21.173 63.466c-7.733 0-14.001-6.27-14.001-14.003 0-7.73 6.269-14 14.001-14 7.731 0 13.999 6.27 13.999 14C35.172 57.196 28.905 63.466 21.173 63.466zM78.828 63.464c-7.73 0-14-6.267-14-14 0-7.729 6.27-14 14-14 7.733 0 14 6.271 14 14C92.828 57.197 86.562 63.464 78.828 63.464z" data-fill-palette-color="accent"></path></svg></g></svg></g><g></g></svg></g><defs></defs></svg><rect width="395.52" height="109.87195334497515" fill="none" stroke="none" visibility="hidden"></rect></g></svg></g></svg>